<mxfile host="app.diagrams.net" modified="2022-05-31T09:34:19.537Z" agent="5.0 (Windows NT 10.0; Win64; x64) AppleWebKit/537.36 (KHTML, like Gecko) Chrome/102.0.5005.61 Safari/537.36" etag="c1ml3cKGhnGhvTI6WUTD" version="18.1.3" type="github">
  <diagram id="1Qcaf6288ehqlXWWsb9V" name="Page-1">
    <mxGraphModel dx="965" dy="597" grid="1" gridSize="10" guides="1" tooltips="1" connect="1" arrows="1" fold="1" page="1" pageScale="1" pageWidth="850" pageHeight="1100" math="0" shadow="0">
      <root>
        <mxCell id="0" />
        <mxCell id="1" parent="0" />
        <mxCell id="yMdNidDc4UPwe0UghGcY-1" value="Nguồn dữ liệu" style="points=[[0.25,0,0],[0.5,0,0],[0.75,0,0],[1,0.25,0],[1,0.5,0],[1,0.75,0],[0.75,1,0],[0.5,1,0],[0.25,1,0],[0,0.75,0],[0,0.5,0],[0,0.25,0]];rounded=1;arcSize=10;dashed=1;strokeColor=#000000;fillColor=none;gradientColor=none;dashPattern=8 3 1 3;strokeWidth=2;fontStyle=1;fontSize=20;" vertex="1" parent="1">
          <mxGeometry x="40" y="120" width="190" height="380" as="geometry" />
        </mxCell>
        <mxCell id="yMdNidDc4UPwe0UghGcY-2" value="" style="edgeStyle=none;rounded=0;html=1;jettySize=auto;orthogonalLoop=1;strokeColor=#00B336;strokeWidth=2;fontColor=#000000;jumpStyle=none;endArrow=block;endFill=1;startArrow=none;" edge="1" parent="1" source="yMdNidDc4UPwe0UghGcY-1">
          <mxGeometry width="100" relative="1" as="geometry">
            <mxPoint x="230" y="310" as="sourcePoint" />
            <mxPoint x="295" y="310" as="targetPoint" />
          </mxGeometry>
        </mxCell>
        <mxCell id="yMdNidDc4UPwe0UghGcY-3" value="" style="rounded=1;whiteSpace=wrap;html=1;fillColor=#eeeeee;strokeColor=#36393d;" vertex="1" parent="1">
          <mxGeometry x="295" y="120" width="455" height="380" as="geometry" />
        </mxCell>
        <mxCell id="yMdNidDc4UPwe0UghGcY-4" value="&lt;font style=&quot;font-size: 22px&quot;&gt;&lt;b&gt;Data Warehouse&lt;/b&gt;&lt;/font&gt;" style="text;html=1;strokeColor=none;fillColor=none;align=center;verticalAlign=middle;whiteSpace=wrap;rounded=0;" vertex="1" parent="1">
          <mxGeometry x="315" y="140" width="415" height="30" as="geometry" />
        </mxCell>
        <mxCell id="yMdNidDc4UPwe0UghGcY-5" value="" style="rounded=1;whiteSpace=wrap;html=1;fontSize=22;" vertex="1" parent="1">
          <mxGeometry x="300" y="200" width="143" height="280" as="geometry" />
        </mxCell>
        <mxCell id="yMdNidDc4UPwe0UghGcY-6" value="&lt;font size=&quot;1&quot; face=&quot;Times New Roman&quot;&gt;&lt;b style=&quot;font-size: 17px;&quot;&gt;Lớp nhớ đệm&lt;/b&gt;&lt;/font&gt;" style="text;html=1;strokeColor=none;fillColor=none;align=center;verticalAlign=middle;whiteSpace=wrap;rounded=0;fontSize=22;" vertex="1" parent="1">
          <mxGeometry x="320" y="200" width="103" height="18" as="geometry" />
        </mxCell>
        <mxCell id="yMdNidDc4UPwe0UghGcY-7" value="&lt;span style=&quot;font-size: 13pt; line-height: 150%; font-family: &amp;quot;Times New Roman&amp;quot;, serif;&quot;&gt;&lt;b&gt;Kho dữ liệu hoạt động (ODS)&lt;/b&gt;&lt;/span&gt;" style="rounded=1;whiteSpace=wrap;html=1;fontFamily=Times New Roman;fontSize=14;fillColor=#819457;strokeColor=#36393d;" vertex="1" parent="1">
          <mxGeometry x="327.5" y="350" width="88" height="110" as="geometry" />
        </mxCell>
        <mxCell id="yMdNidDc4UPwe0UghGcY-8" value="" style="rounded=1;whiteSpace=wrap;html=1;fontSize=22;" vertex="1" parent="1">
          <mxGeometry x="450" y="200" width="148" height="280" as="geometry" />
        </mxCell>
        <mxCell id="yMdNidDc4UPwe0UghGcY-9" value="&lt;font size=&quot;1&quot; face=&quot;Times New Roman&quot;&gt;&lt;b style=&quot;font-size: 17px;&quot;&gt;Lớp lưu trữ&lt;/b&gt;&lt;/font&gt;" style="text;html=1;strokeColor=none;fillColor=none;align=center;verticalAlign=middle;whiteSpace=wrap;rounded=0;fontSize=22;" vertex="1" parent="1">
          <mxGeometry x="480" y="194" width="98" height="30" as="geometry" />
        </mxCell>
        <mxCell id="yMdNidDc4UPwe0UghGcY-10" value="" style="rounded=1;whiteSpace=wrap;html=1;fontSize=22;" vertex="1" parent="1">
          <mxGeometry x="605" y="200" width="135" height="280" as="geometry" />
        </mxCell>
        <mxCell id="yMdNidDc4UPwe0UghGcY-11" value="&lt;font size=&quot;1&quot; face=&quot;Times New Roman&quot;&gt;&lt;b style=&quot;font-size: 15px;&quot;&gt;Lớp phân tích dữ liệu&lt;/b&gt;&lt;/font&gt;" style="text;html=1;strokeColor=none;fillColor=none;align=center;verticalAlign=middle;whiteSpace=wrap;rounded=0;fontSize=22;" vertex="1" parent="1">
          <mxGeometry x="610" y="210" width="130" height="20" as="geometry" />
        </mxCell>
        <mxCell id="yMdNidDc4UPwe0UghGcY-12" value="&lt;b&gt;&lt;font style=&quot;font-size: 17px;&quot;&gt;Ingest&lt;/font&gt;&lt;/b&gt;" style="shape=singleArrow;whiteSpace=wrap;html=1;fontFamily=Times New Roman;fontSize=14;" vertex="1" parent="1">
          <mxGeometry x="295" y="40" width="115" height="70" as="geometry" />
        </mxCell>
        <mxCell id="yMdNidDc4UPwe0UghGcY-13" value="&lt;b&gt;&lt;font style=&quot;font-size: 17px;&quot;&gt;Transform&lt;/font&gt;&lt;/b&gt;" style="shape=singleArrow;whiteSpace=wrap;html=1;fontFamily=Times New Roman;fontSize=14;" vertex="1" parent="1">
          <mxGeometry x="410" y="40" width="100" height="70" as="geometry" />
        </mxCell>
        <mxCell id="yMdNidDc4UPwe0UghGcY-14" value="&lt;b&gt;&lt;font style=&quot;font-size: 17px;&quot;&gt;Curate&lt;/font&gt;&lt;/b&gt;" style="shape=singleArrow;whiteSpace=wrap;html=1;fontFamily=Times New Roman;fontSize=14;" vertex="1" parent="1">
          <mxGeometry x="510" y="40" width="110" height="70" as="geometry" />
        </mxCell>
        <mxCell id="yMdNidDc4UPwe0UghGcY-15" value="&lt;b&gt;&lt;font style=&quot;font-size: 17px;&quot;&gt;Analyse/Predict&lt;/font&gt;&lt;/b&gt;" style="shape=singleArrow;whiteSpace=wrap;html=1;fontFamily=Times New Roman;fontSize=14;" vertex="1" parent="1">
          <mxGeometry x="620" y="40" width="130" height="70" as="geometry" />
        </mxCell>
        <mxCell id="yMdNidDc4UPwe0UghGcY-16" value="&lt;font style=&quot;font-size: 12px;&quot;&gt;ETL&lt;/font&gt;" style="edgeStyle=orthogonalEdgeStyle;rounded=0;orthogonalLoop=1;jettySize=auto;html=1;entryX=0.5;entryY=0;entryDx=0;entryDy=0;fontSize=17;" edge="1" parent="1" source="yMdNidDc4UPwe0UghGcY-17" target="yMdNidDc4UPwe0UghGcY-7">
          <mxGeometry relative="1" as="geometry" />
        </mxCell>
        <mxCell id="yMdNidDc4UPwe0UghGcY-17" value="Vùng nhớ đệm" style="rounded=1;whiteSpace=wrap;html=1;fontSize=17;fillColor=#f5f5f5;gradientColor=#b3b3b3;strokeColor=#666666;" vertex="1" parent="1">
          <mxGeometry x="328.75" y="230" width="85.5" height="70" as="geometry" />
        </mxCell>
        <mxCell id="yMdNidDc4UPwe0UghGcY-18" value="Enterprise Data Warehouse (EDW)" style="rounded=1;whiteSpace=wrap;html=1;fontSize=17;fillColor=#f5f5f5;gradientColor=#b3b3b3;strokeColor=#666666;" vertex="1" parent="1">
          <mxGeometry x="478" y="230" width="100" height="200" as="geometry" />
        </mxCell>
        <mxCell id="yMdNidDc4UPwe0UghGcY-19" value="" style="rounded=1;whiteSpace=wrap;html=1;fontSize=17;fillColor=#eeeeee;strokeColor=#36393d;" vertex="1" parent="1">
          <mxGeometry x="840" y="115" width="150" height="385" as="geometry" />
        </mxCell>
        <mxCell id="yMdNidDc4UPwe0UghGcY-20" value="&lt;b&gt;Truy cập dữ liệu&lt;/b&gt;" style="text;html=1;strokeColor=none;fillColor=none;align=center;verticalAlign=middle;whiteSpace=wrap;rounded=0;fontSize=17;" vertex="1" parent="1">
          <mxGeometry x="845" y="120" width="140" height="30" as="geometry" />
        </mxCell>
        <mxCell id="yMdNidDc4UPwe0UghGcY-21" value="Ứng dụng quản lý năng xuất" style="rounded=1;whiteSpace=wrap;html=1;fontSize=17;" vertex="1" parent="1">
          <mxGeometry x="847.5" y="170" width="135" height="60" as="geometry" />
        </mxCell>
        <mxCell id="yMdNidDc4UPwe0UghGcY-22" value="Dashboard" style="rounded=1;whiteSpace=wrap;html=1;fontSize=17;" vertex="1" parent="1">
          <mxGeometry x="847.5" y="250" width="135" height="60" as="geometry" />
        </mxCell>
        <mxCell id="yMdNidDc4UPwe0UghGcY-23" value="Web service" style="rounded=1;whiteSpace=wrap;html=1;fontSize=17;" vertex="1" parent="1">
          <mxGeometry x="847.5" y="335" width="135" height="60" as="geometry" />
        </mxCell>
        <mxCell id="yMdNidDc4UPwe0UghGcY-24" value="Phân tích nâng cao" style="rounded=1;whiteSpace=wrap;html=1;fontSize=17;" vertex="1" parent="1">
          <mxGeometry x="847.5" y="420" width="135" height="60" as="geometry" />
        </mxCell>
        <mxCell id="yMdNidDc4UPwe0UghGcY-25" value="ETL" style="endArrow=classic;html=1;rounded=0;fontSize=12;entryX=0;entryY=0.5;entryDx=0;entryDy=0;" edge="1" parent="1" target="yMdNidDc4UPwe0UghGcY-18">
          <mxGeometry width="50" height="50" relative="1" as="geometry">
            <mxPoint x="415.5" y="420" as="sourcePoint" />
            <mxPoint x="465.5" y="370" as="targetPoint" />
          </mxGeometry>
        </mxCell>
        <mxCell id="yMdNidDc4UPwe0UghGcY-26" value="" style="edgeStyle=none;rounded=0;html=1;jettySize=auto;orthogonalLoop=1;strokeColor=#404040;strokeWidth=2;fontColor=#000000;jumpStyle=none;endArrow=block;endFill=1;startArrow=none;fontSize=17;" edge="1" parent="1">
          <mxGeometry width="100" relative="1" as="geometry">
            <mxPoint x="420" y="450" as="sourcePoint" />
            <mxPoint x="840" y="450" as="targetPoint" />
          </mxGeometry>
        </mxCell>
        <mxCell id="yMdNidDc4UPwe0UghGcY-27" value="Data mart" style="rounded=0;whiteSpace=wrap;html=1;fontSize=17;fillColor=#819457;" vertex="1" parent="1">
          <mxGeometry x="635.75" y="268" width="78.5" height="42" as="geometry" />
        </mxCell>
        <mxCell id="yMdNidDc4UPwe0UghGcY-28" value="Data mart" style="rounded=0;whiteSpace=wrap;html=1;fontSize=17;fillColor=#819457;" vertex="1" parent="1">
          <mxGeometry x="635.75" y="330" width="78.5" height="42" as="geometry" />
        </mxCell>
        <mxCell id="yMdNidDc4UPwe0UghGcY-29" value="Data mart" style="rounded=0;whiteSpace=wrap;html=1;fontSize=17;fillColor=#819457;" vertex="1" parent="1">
          <mxGeometry x="635.75" y="395" width="78.5" height="42" as="geometry" />
        </mxCell>
        <mxCell id="yMdNidDc4UPwe0UghGcY-30" value="ETL" style="edgeStyle=none;rounded=0;html=1;jettySize=auto;orthogonalLoop=1;strokeColor=#404040;strokeWidth=2;fontColor=#000000;jumpStyle=none;endArrow=block;endFill=1;startArrow=none;fontSize=12;" edge="1" parent="1">
          <mxGeometry width="100" relative="1" as="geometry">
            <mxPoint x="580" y="290" as="sourcePoint" />
            <mxPoint x="630" y="290" as="targetPoint" />
          </mxGeometry>
        </mxCell>
        <mxCell id="yMdNidDc4UPwe0UghGcY-31" value="ETL" style="edgeStyle=none;rounded=0;html=1;jettySize=auto;orthogonalLoop=1;strokeColor=#404040;strokeWidth=2;fontColor=#000000;jumpStyle=none;endArrow=block;endFill=1;startArrow=none;fontSize=12;" edge="1" parent="1">
          <mxGeometry width="100" relative="1" as="geometry">
            <mxPoint x="580" y="340" as="sourcePoint" />
            <mxPoint x="630" y="340" as="targetPoint" />
          </mxGeometry>
        </mxCell>
        <mxCell id="yMdNidDc4UPwe0UghGcY-32" value="ETL" style="edgeStyle=none;rounded=0;html=1;jettySize=auto;orthogonalLoop=1;strokeColor=#404040;strokeWidth=2;fontColor=#000000;jumpStyle=none;endArrow=block;endFill=1;startArrow=none;fontSize=12;" edge="1" parent="1">
          <mxGeometry width="100" relative="1" as="geometry">
            <mxPoint x="580" y="412" as="sourcePoint" />
            <mxPoint x="630" y="412" as="targetPoint" />
          </mxGeometry>
        </mxCell>
        <mxCell id="yMdNidDc4UPwe0UghGcY-33" value="ETL" style="edgeStyle=none;rounded=0;html=1;jettySize=auto;orthogonalLoop=1;strokeColor=#404040;strokeWidth=2;fontColor=#000000;jumpStyle=none;endArrow=block;endFill=1;startArrow=none;fontSize=12;entryX=-0.007;entryY=0.175;entryDx=0;entryDy=0;entryPerimeter=0;" edge="1" parent="1" target="yMdNidDc4UPwe0UghGcY-18">
          <mxGeometry width="100" relative="1" as="geometry">
            <mxPoint x="415.5" y="264.28999999999996" as="sourcePoint" />
            <mxPoint x="470" y="264" as="targetPoint" />
          </mxGeometry>
        </mxCell>
        <mxCell id="yMdNidDc4UPwe0UghGcY-34" value="" style="edgeStyle=none;rounded=0;html=1;jettySize=auto;orthogonalLoop=1;strokeColor=#404040;strokeWidth=2;fontColor=#000000;jumpStyle=none;endArrow=block;endFill=1;startArrow=none;fontSize=17;" edge="1" parent="1">
          <mxGeometry width="100" relative="1" as="geometry">
            <mxPoint x="578" y="250" as="sourcePoint" />
            <mxPoint x="840" y="250" as="targetPoint" />
          </mxGeometry>
        </mxCell>
        <mxCell id="yMdNidDc4UPwe0UghGcY-35" value="" style="edgeStyle=none;rounded=0;html=1;entryX=-0.012;entryY=0.453;jettySize=auto;orthogonalLoop=1;strokeColor=#404040;strokeWidth=2;fontColor=#000000;jumpStyle=none;endArrow=block;endFill=1;startArrow=none;fontSize=17;entryDx=0;entryDy=0;entryPerimeter=0;" edge="1" parent="1" target="yMdNidDc4UPwe0UghGcY-19">
          <mxGeometry width="100" relative="1" as="geometry">
            <mxPoint x="710" y="289" as="sourcePoint" />
            <mxPoint x="820" y="290" as="targetPoint" />
            <Array as="points">
              <mxPoint x="740" y="289" />
              <mxPoint x="770" y="289" />
            </Array>
          </mxGeometry>
        </mxCell>
        <mxCell id="yMdNidDc4UPwe0UghGcY-36" value="" style="edgeStyle=none;rounded=0;html=1;entryX=-0.023;entryY=0.616;jettySize=auto;orthogonalLoop=1;strokeColor=#404040;strokeWidth=2;fontColor=#000000;jumpStyle=none;endArrow=block;endFill=1;startArrow=none;fontSize=17;entryDx=0;entryDy=0;entryPerimeter=0;" edge="1" parent="1" target="yMdNidDc4UPwe0UghGcY-19">
          <mxGeometry width="100" relative="1" as="geometry">
            <mxPoint x="714.25" y="350.8800000000001" as="sourcePoint" />
            <mxPoint x="832.4500000000003" y="350.28499999999997" as="targetPoint" />
          </mxGeometry>
        </mxCell>
        <mxCell id="yMdNidDc4UPwe0UghGcY-37" value="" style="edgeStyle=none;rounded=0;html=1;entryX=0.009;entryY=0.78;jettySize=auto;orthogonalLoop=1;strokeColor=#404040;strokeWidth=2;fontColor=#000000;jumpStyle=none;endArrow=block;endFill=1;startArrow=none;fontSize=17;entryDx=0;entryDy=0;entryPerimeter=0;" edge="1" parent="1" target="yMdNidDc4UPwe0UghGcY-19">
          <mxGeometry width="100" relative="1" as="geometry">
            <mxPoint x="714.25" y="415.8800000000001" as="sourcePoint" />
            <mxPoint x="832.4500000000003" y="415.28499999999997" as="targetPoint" />
          </mxGeometry>
        </mxCell>
      </root>
    </mxGraphModel>
  </diagram>
</mxfile>
